# xmcd
#
# Track frame offsets:
#	150
#	19405
#	42610
#	61537
#	76870
#	106145
#	122777
#	139902
#	156317
#	175817
#	196837
#
# Disc length: 2712 seconds
#
# Revision: 1
# Processed by: cddbd v1.5.1PL0 Copyright (c) Steve Scherf et al.
# Submitted via: CDex 1.50Beta5
#
DISCID=8e0a960b
DTITLE=赤木りえ - FANTASIA
DYEAR=1988
DGENRE=
TTITLE0=ラベンダーの詩
TTITLE1=STARS OF LOVERS
TTITLE2=オンディーヌ
TTITLE3=素足のパ・ド・ドゥ
TTITLE4=月の森
TTITLE5=ささやきの小径
TTITLE6=BELLY DANCER
TTITLE7=PEARLS ON THE LEAVES
TTITLE8=嘆きの道化師
TTITLE9=回想
TTITLE10=FANTASIA
EXTD=
EXTT0=
EXTT1=
EXTT2=
EXTT3=
EXTT4=
EXTT5=
EXTT6=
EXTT7=
EXTT8=
EXTT9=
EXTT10=
PLAYORDER=
